<?xml version="1.0" standalone="no"?>
<!DOCTYPE svg PUBLIC "-//W3C//DTD SVG 20010904//EN"
 "http://www.w3.org/TR/2001/REC-SVG-20010904/DTD/svg10.dtd">
<svg version="1.0" xmlns="http://www.w3.org/2000/svg"
 width="500.000000pt" height="500.000000pt" viewBox="0 0 500.000000 500.000000"
 preserveAspectRatio="xMidYMid meet">
<metadata>
Created by potrace 1.11, written by Peter Selinger 2001-2013
</metadata>
<g transform="translate(0.000000,500.000000) scale(0.100000,-0.100000)"
fill="#000000" stroke="none">
<path d="M2319 4986 c-2 -2 -36 -6 -74 -10 -76 -7 -86 -9 -215 -32 -359 -66
-733 -238 -1050 -483 -109 -84 -327 -302 -412 -411 -300 -388 -482 -843 -525
-1310 -10 -105 -10 -378 0 -485 12 -131 41 -288 78 -420 94 -334 244 -626 467
-910 77 -97 290 -307 392 -386 281 -218 589 -370 920 -454 127 -32 195 -44
365 -64 91 -11 370 -11 460 0 39 4 92 11 119 14 109 12 276 51 416 97 488 158
921 474 1232 898 161 220 301 506 377 773 37 129 49 181 66 287 4 25 9 53 10
62 26 137 25 544 -1 703 -26 164 -75 372 -103 440 -5 11 -21 54 -36 95 -252
685 -844 1251 -1545 1479 -256 82 -437 111 -726 117 -116 2 -213 2 -215 0z"/>
</g>
</svg>
